STARTFONT 2.1
FONT HAN-GB2312
SIZE 16 72 72
FONTBOUNDINGBOX 5 16 0 0
STARTPROPERTIES 1
BITCOUNT 8
ENDPROPERTIES
CHARS 83
STARTCHAR  00E0
ENCODING  224
SWIDTH  1000 0
DWIDTH  5 0
BBX  3 14 1 0
BITMAP
80E010
000000
FFFFFF
FFFFFF
FF00FF
FF00FF
FF00FF
FF00FF
FF00FF
FF00FF
FF00FF
FF00FF
FF00FF
FFFFFF
ENDCHAR
STARTCHAR  00E1
ENCODING  225
SWIDTH  1000 0
DWIDTH  5 0
BBX  3 14 1 0
BITMAP
10E080
000000
FFFFFF
FFFFFF
FF00FF
FF00FF
FF00FF
FF00FF
FF00FF
FF00FF
FF00FF
FF00FF
FF00FF
FFFFFF
ENDCHAR
STARTCHAR  00E8
ENCODING  232
SWIDTH  1000 0
DWIDTH  5 0
BBX  3 14 1 0
BITMAP
80E010
000000
FFFFFF
FF00FF
FFFFFF
FF0080
FF00FF
FF00FF
FF00FF
FF00FF
FF00FF
FF00FF
FF00FF
FFFFFF
ENDCHAR
STARTCHAR  00E9
ENCODING  233
SWIDTH  1000 0
DWIDTH  5 0
BBX  3 14 1 0
BITMAP
10E080
000000
FFFFFF
FF00FF
FFFFFF
FF0080
FF00FF
FF00FF
FF00FF
FF00FF
FF00FF
FF00FF
FF00FF
FFFFFF
ENDCHAR
STARTCHAR  00EA
ENCODING  234
SWIDTH  1000 0
DWIDTH  5 0
BBX  3 14 1 0
BITMAP
C0FFC0
400040
FFFFFF
FF00FF
FFFFFF
FF0080
FF00FF
FF00FF
FF00FF
FF00FF
FF00FF
FF00FF
FF00FF
FFFFFF
ENDCHAR
STARTCHAR  00EC
ENCODING  236
SWIDTH  1000 0
DWIDTH  3 0
BBX  2 14 0 0
BITMAP
40C0
0000
00FF
00FF
00FF
00FF
00FF
00FF
00FF
00FF
00FF
00FF
00FF
00FF
ENDCHAR
STARTCHAR  00ED
ENCODING  237
SWIDTH  1000 0
DWIDTH  3 0
BBX  2 14 1 0
BITMAP
C040
0000
FF00
FF00
FF00
FF00
FF00
FF00
FF00
FF00
FF00
FF00
FF00
FF00
ENDCHAR
STARTCHAR  00F2
ENCODING  242
SWIDTH  1000 0
DWIDTH  5 0
BBX  3 14 1 0
BITMAP
80E010
000000
FFFFFF
FF00FF
FF00FF
FF00FF
FF00FF
FF00FF
FF00FF
FF00FF
FF00FF
FF00FF
FF00FF
FFFFFF
ENDCHAR
STARTCHAR  00F3
ENCODING  243
SWIDTH  1000 0
DWIDTH  5 0
BBX  3 14 1 0
BITMAP
10E080
000000
FFFFFF
FF00FF
FF00FF
FF00FF
FF00FF
FF00FF
FF00FF
FF00FF
FF00FF
FF00FF
FF00FF
FFFFFF
ENDCHAR
STARTCHAR  00F9
ENCODING  249
SWIDTH  1000 0
DWIDTH  5 0
BBX  3 14 1 0
BITMAP
80E010
000000
FF00FF
FF00FF
FF00FF
FF00FF
FF00FF
FF00FF
FF00FF
FF00FF
FF00FF
FF00FF
FF00FF
FFFFFF
ENDCHAR
STARTCHAR  00FA
ENCODING  250
SWIDTH  1000 0
DWIDTH  5 0
BBX  3 14 1 0
BITMAP
10E080
000000
FF00FF
FF00FF
FF00FF
FF00FF
FF00FF
FF00FF
FF00FF
FF00FF
FF00FF
FF00FF
FF00FF
FFFFFF
ENDCHAR
STARTCHAR  00FC
ENCODING  252
SWIDTH  1000 0
DWIDTH  5 0
BBX  3 14 1 0
BITMAP
FF00FF
000000
FF00FF
FF00FF
FF00FF
FF00FF
FF00FF
FF00FF
FF00FF
FF00FF
FF00FF
FF00FF
FF00FF
FFFFFF
ENDCHAR
STARTCHAR  01CE
ENCODING  462
SWIDTH  1000 0
DWIDTH  5 0
BBX  3 14 1 0
BITMAP
200020
A0C0A0
FFFFFF
FFFFFF
FF00FF
FF00FF
FF00FF
FF00FF
FF00FF
FF00FF
FF00FF
FF00FF
FF00FF
FFFFFF
ENDCHAR
STARTCHAR  0401
ENCODING  1025
SWIDTH  1000 0
DWIDTH  5 0
BBX  3 16 1 0
BITMAP
FF00FF
000000
FFFFFF
FF00FF
FFFFFF
FF0080
FF00FF
FF00FF
FF00FF
FF00FF
FF00FF
FF00FF
FF00FF
FF00FF
FF00FF
FFFFFF
ENDCHAR
STARTCHAR  0410
ENCODING  1040
SWIDTH  1000 0
DWIDTH  5 0
BBX  3 14 1 0
BITMAP
FFFFFF
FF00FF
FFFFFF
FF00FF
FF00FF
FF00FF
FF00FF
FF00FF
FF00FF
FF00FF
FF00FF
FF00FF
FF00FF
FF00FF
ENDCHAR
STARTCHAR  0411
ENCODING  1041
SWIDTH  1000 0
DWIDTH  5 0
BBX  3 14 1 0
BITMAP
FFFFFF
FF0000
FFFFFF
FF00FF
FF00FF
FF00FF
FF00FF
FF00FF
FF00FF
FF00FF
FF00FF
FF00FF
FF00FF
FFFFFF
ENDCHAR
STARTCHAR  0412
ENCODING  1042
SWIDTH  1000 0
DWIDTH  5 0
BBX  3 14 1 0
BITMAP
FFFFFF
FF00FF
FFFFFF
FF00FF
FF00FF
FF00FF
FF00FF
FF00FF
FF00FF
FF00FF
FF00FF
FF00FF
FF00FF
FFFFFF
ENDCHAR
STARTCHAR  0413
ENCODING  1043
SWIDTH  1000 0
DWIDTH  3 0
BBX  2 14 1 0
BITMAP
FFC0
FF00
FF00
FF00
FF00
FF00
FF00
FF00
FF00
FF00
FF00
FF00
FF00
FF00
ENDCHAR
STARTCHAR  0414
ENCODING  1044
SWIDTH  1000 0
DWIDTH  6 0
BBX  4 15 1 -1
BITMAP
00FFFFFF
00FF00FF
00FF00FF
00FF00FF
00FF00FF
00FF00FF
00FF00FF
00FF00FF
00FF00FF
00FF00FF
00FF00FF
00FF00FF
00FF00FF
FFFFFFFF
00FF00FF
ENDCHAR
STARTCHAR  0415
ENCODING  1045
SWIDTH  1000 0
DWIDTH  5 0
BBX  3 14 1 0
BITMAP
FFFFFF
FF0080
FFFFFF
FF0080
FF00FF
FF00FF
FF00FF
FF00FF
FF00FF
FF00FF
FF00FF
FF00FF
FF00FF
FFFFFF
ENDCHAR
STARTCHAR  0416
ENCODING  1046
SWIDTH  1000 0
DWIDTH  7 0
BBX  5 14 1 0
BITMAP
FF00FF00FF
FF00FF00FF
FFFFFFFFFF
FF00FF00FF
FF00FF00FF
FF00FF00FF
FF00FF00FF
FF00FF00FF
FF00FF00FF
FF00FF00FF
FF00FF00FF
FF00FF00FF
FF00FF00FF
FF00FF00FF
ENDCHAR
STARTCHAR  0417
ENCODING  1047
SWIDTH  1000 0
DWIDTH  5 0
BBX  3 14 1 0
BITMAP
FFFFFF
0000FF
FFFFFF
8000FF
FF00FF
FF00FF
FF00FF
FF00FF
FF00FF
FF00FF
FF00FF
FF00FF
FF00FF
FFFFFF
ENDCHAR
STARTCHAR  0418
ENCODING  1048
SWIDTH  1000 0
DWIDTH  5 0
BBX  3 14 1 0
BITMAP
FF00FF
FF00FF
FF80FF
FFFFFF
FF40FF
FF00FF
FF00FF
FF00FF
FF00FF
FF00FF
FF00FF
FF00FF
FF00FF
FF00FF
ENDCHAR
STARTCHAR  0419
ENCODING  1049
SWIDTH  1000 0
DWIDTH  5 0
BBX  3 16 1 0
BITMAP
200020
A0C0A0
FF00FF
FF00FF
FF80FF
FFFFFF
FF40FF
FF00FF
FF00FF
FF00FF
FF00FF
FF00FF
FF00FF
FF00FF
FF00FF
FF00FF
ENDCHAR
STARTCHAR  041A
ENCODING  1050
SWIDTH  1000 0
DWIDTH  5 0
BBX  3 14 1 0
BITMAP
FF00FF
FF00FF
FFFFFF
FFFFFF
FF00FF
FF00FF
FF00FF
FF00FF
FF00FF
FF00FF
FF00FF
FF00FF
FF00FF
FF00FF
ENDCHAR
STARTCHAR  041B
ENCODING  1051
SWIDTH  1000 0
DWIDTH  5 0
BBX  4 14 0 0
BITMAP
00FFFFFF
00FF00FF
00FF00FF
00FF00FF
00FF00FF
00FF00FF
00FF00FF
00FF00FF
00FF00FF
00FF00FF
00FF00FF
00FF00FF
00FF00FF
80FF00FF
ENDCHAR
STARTCHAR  041C
ENCODING  1052
SWIDTH  1000 0
DWIDTH  7 0
BBX  5 14 1 0
BITMAP
FFFFFFFFFF
FF00FF00FF
FF00FF00FF
FF00FF00FF
FF00FF00FF
FF00FF00FF
FF00FF00FF
FF00FF00FF
FF00FF00FF
FF00FF00FF
FF00FF00FF
FF00FF00FF
FF00FF00FF
FF00FF00FF
ENDCHAR
STARTCHAR  041D
ENCODING  1053
SWIDTH  1000 0
DWIDTH  5 0
BBX  3 14 1 0
BITMAP
FF00FF
FF00FF
FFFFFF
FF00FF
FF00FF
FF00FF
FF00FF
FF00FF
FF00FF
FF00FF
FF00FF
FF00FF
FF00FF
FF00FF
ENDCHAR
STARTCHAR  041E
ENCODING  1054
SWIDTH  1000 0
DWIDTH  5 0
BBX  3 14 1 0
BITMAP
FFFFFF
FF00FF
FF00FF
FF00FF
FF00FF
FF00FF
FF00FF
FF00FF
FF00FF
FF00FF
FF00FF
FF00FF
FF00FF
FFFFFF
ENDCHAR
STARTCHAR  041F
ENCODING  1055
SWIDTH  1000 0
DWIDTH  5 0
BBX  3 14 1 0
BITMAP
FFFFFF
FF00FF
FF00FF
FF00FF
FF00FF
FF00FF
FF00FF
FF00FF
FF00FF
FF00FF
FF00FF
FF00FF
FF00FF
FF00FF
ENDCHAR
STARTCHAR  0420
ENCODING  1056
SWIDTH  1000 0
DWIDTH  5 0
BBX  3 14 1 0
BITMAP
FFFFFF
FF00FF
FF00FF
FF00FF
FF00FF
FF00FF
FF00FF
FF00FF
FF00FF
FF00FF
FF00FF
FFFFFF
FF0000
FF0000
ENDCHAR
STARTCHAR  0421
ENCODING  1057
SWIDTH  1000 0
DWIDTH  5 0
BBX  3 14 1 0
BITMAP
FFFFFF
FF00FF
FF0080
FF00FF
FF00FF
FF00FF
FF00FF
FF00FF
FF00FF
FF00FF
FF00FF
FF00FF
FF00FF
FFFFFF
ENDCHAR
STARTCHAR  0422
ENCODING  1058
SWIDTH  1000 0
DWIDTH  5 0
BBX  3 14 1 0
BITMAP
FF0000
FF0000
FFFFFF
FF0080
FF00FF
FF00FF
FF00FF
FF00FF
FF00FF
FF00FF
FF00FF
FF00FF
FF00FF
FFFFFF
ENDCHAR
STARTCHAR  0423
ENCODING  1059
SWIDTH  1000 0
DWIDTH  5 0
BBX  3 14 1 0
BITMAP
FF00FF
FF00FF
FFFFFF
8000FF
FF00FF
FF00FF
FF00FF
FF00FF
FF00FF
FF00FF
FF00FF
FF00FF
FF00FF
FFFFFF
ENDCHAR
STARTCHAR  0424
ENCODING  1060
SWIDTH  1000 0
DWIDTH  7 0
BBX  5 14 1 0
BITMAP
0000FF0000
0000FF0000
FFFFFFFFFF
FF00FF00FF
FF00FF00FF
FF00FF00FF
FF00FF00FF
FF00FF00FF
FF00FF00FF
FF00FF00FF
FF00FF00FF
FFFFFFFFFF
0000FF0000
0000FF0000
ENDCHAR
STARTCHAR  0425
ENCODING  1061
SWIDTH  1000 0
DWIDTH  5 0
BBX  3 14 1 0
BITMAP
FF00FF
FF00FF
FFFFFF
FFFFFF
FFE0FF
FF00FF
FF00FF
FF00FF
FF00FF
FF00FF
FF00FF
FF00FF
FF00FF
FF00FF
ENDCHAR
STARTCHAR  0426
ENCODING  1062
SWIDTH  1000 0
DWIDTH  5 0
BBX  3 15 1 -1
BITMAP
FF00FF
FF00FF
FF00FF
FF00FF
FF00FF
FF00FF
FF00FF
FF00FF
FF00FF
FF00FF
FF00FF
FF00FF
FF00FF
FFFFFF
0000FF
ENDCHAR
STARTCHAR  0427
ENCODING  1063
SWIDTH  1000 0
DWIDTH  5 0
BBX  3 14 1 0
BITMAP
FF00FF
FF00FF
FF00FF
FF00FF
FF00FF
FF00FF
FF00FF
FF00FF
FF00FF
FF00FF
FF00FF
FFFFFF
0000FF
0000FF
ENDCHAR
STARTCHAR  0428
ENCODING  1064
SWIDTH  1000 0
DWIDTH  7 0
BBX  5 14 1 0
BITMAP
FF00FF00FF
FF00FF00FF
FF00FF00FF
FF00FF00FF
FF00FF00FF
FF00FF00FF
FF00FF00FF
FF00FF00FF
FF00FF00FF
FF00FF00FF
FF00FF00FF
FF00FF00FF
FF00FF00FF
FFFFFFFFFF
ENDCHAR
STARTCHAR  0429
ENCODING  1065
SWIDTH  1000 0
DWIDTH  7 0
BBX  5 15 1 -1
BITMAP
FF00FFFF00
FF00FFFF00
FF00FFFF00
FF00FFFF00
FF00FFFF00
FF00FFFF00
FF00FFFF00
FF00FFFF00
FF00FFFF00
FF00FFFF00
FF00FFFF00
FF00FFFF00
FF00FFFF00
FFFFFFFFFF
00000000FF
ENDCHAR
STARTCHAR  042A
ENCODING  1066
SWIDTH  1000 0
DWIDTH  5 0
BBX  4 14 0 0
BITMAP
80FF0000
00FF0000
00FFFFFF
00FF00FF
00FF00FF
00FF00FF
00FF00FF
00FF00FF
00FF00FF
00FF00FF
00FF00FF
00FF00FF
00FF00FF
00FFFFFF
ENDCHAR
STARTCHAR  042B
ENCODING  1067
SWIDTH  1000 0
DWIDTH  7 0
BBX  5 14 1 0
BITMAP
FF000000FF
FF000000FF
FFFFFF00FF
FF00FF00FF
FF00FF00FF
FF00FF00FF
FF00FF00FF
FF00FF00FF
FF00FF00FF
FF00FF00FF
FF00FF00FF
FF00FF00FF
FF00FF00FF
FFFFFF00FF
ENDCHAR
STARTCHAR  042C
ENCODING  1068
SWIDTH  1000 0
DWIDTH  5 0
BBX  3 14 1 0
BITMAP
FF0000
FF0000
FFFFFF
FF00FF
FF00FF
FF00FF
FF00FF
FF00FF
FF00FF
FF00FF
FF00FF
FF00FF
FF00FF
FFFFFF
ENDCHAR
STARTCHAR  042D
ENCODING  1069
SWIDTH  1000 0
DWIDTH  5 0
BBX  3 14 1 0
BITMAP
FFFFFF
8000FF
FFFFFF
8000FF
FF00FF
FF00FF
FF00FF
FF00FF
FF00FF
FF00FF
FF00FF
FF00FF
FF00FF
FFFFFF
ENDCHAR
STARTCHAR  042E
ENCODING  1070
SWIDTH  1000 0
DWIDTH  7 0
BBX  5 14 1 0
BITMAP
FF00FFFFFF
FF00FF00FF
FFFFFF00FF
FF00FF00FF
FF00FF00FF
FF00FF00FF
FF00FF00FF
FF00FF00FF
FF00FF00FF
FF00FF00FF
FF00FF00FF
FF00FF00FF
FF00FF00FF
FF00FFFFFF
ENDCHAR
STARTCHAR  042F
ENCODING  1071
SWIDTH  1000 0
DWIDTH  5 0
BBX  3 14 1 0
BITMAP
FFFFFF
FF00FF
FFFFFF
FFFFFF
FF00FF
FF00FF
FF00FF
FF00FF
FF00FF
FF00FF
FF00FF
FF00FF
FF00FF
FF00FF
ENDCHAR
STARTCHAR  0430
ENCODING  1072
SWIDTH  1000 0
DWIDTH  5 0
BBX  3 12 1 0
BITMAP
FFFFFF
FFFFFF
FF00FF
FF00FF
FF00FF
FF00FF
FF00FF
FF00FF
FF00FF
FF00FF
FF00FF
FFFFFF
ENDCHAR
STARTCHAR  0431
ENCODING  1073
SWIDTH  1000 0
DWIDTH  5 0
BBX  3 14 1 0
BITMAP
FFFFFF
FF0000
FFFFFF
FF00FF
FF00FF
FF00FF
FF00FF
FF00FF
FF00FF
FF00FF
FF00FF
FF00FF
FF00FF
FFFFFF
ENDCHAR
STARTCHAR  0432
ENCODING  1074
SWIDTH  1000 0
DWIDTH  5 0
BBX  3 12 1 0
BITMAP
FFFFFF
FF00FF
FFFFFF
FF00FF
FF00FF
FF00FF
FF00FF
FF00FF
FF00FF
FF00FF
FF00FF
FFFFFF
ENDCHAR
STARTCHAR  0433
ENCODING  1075
SWIDTH  1000 0
DWIDTH  3 0
BBX  2 12 1 0
BITMAP
FFC0
FF00
FF00
FF00
FF00
FF00
FF00
FF00
FF00
FF00
FF00
FF00
ENDCHAR
STARTCHAR  0434
ENCODING  1076
SWIDTH  1000 0
DWIDTH  6 0
BBX  4 13 1 -1
BITMAP
00FFFFFF
00FF00FF
00FF00FF
00FF00FF
00FF00FF
00FF00FF
00FF00FF
00FF00FF
00FF00FF
00FF00FF
00FF00FF
FFFFFFFF
00FF00FF
ENDCHAR
STARTCHAR  0435
ENCODING  1077
SWIDTH  1000 0
DWIDTH  5 0
BBX  3 12 1 0
BITMAP
FFFFFF
FF00FF
FFFFFF
FF0080
FF00FF
FF00FF
FF00FF
FF00FF
FF00FF
FF00FF
FF00FF
FFFFFF
ENDCHAR
STARTCHAR  0436
ENCODING  1078
SWIDTH  1000 0
DWIDTH  7 0
BBX  5 12 1 0
BITMAP
FF00FF00FF
FF00FF00FF
FFFFFFFFFF
FF00FF00FF
FF00FF00FF
FF00FF00FF
FF00FF00FF
FF00FF00FF
FF00FF00FF
FF00FF00FF
FF00FF00FF
FF00FF00FF
ENDCHAR
STARTCHAR  0437
ENCODING  1079
SWIDTH  1000 0
DWIDTH  5 0
BBX  3 12 1 0
BITMAP
FFFFFF
0000FF
FFFFFF
8000FF
FF00FF
FF00FF
FF00FF
FF00FF
FF00FF
FF00FF
FF00FF
FFFFFF
ENDCHAR
STARTCHAR  0438
ENCODING  1080
SWIDTH  1000 0
DWIDTH  5 0
BBX  3 12 1 0
BITMAP
FF00FF
FF00FF
FF80FF
FFFFFF
FF40FF
FF00FF
FF00FF
FF00FF
FF00FF
FF00FF
FF00FF
FF00FF
ENDCHAR
STARTCHAR  0439
ENCODING  1081
SWIDTH  1000 0
DWIDTH  5 0
BBX  3 14 1 0
BITMAP
200020
A0C0A0
FF00FF
FF00FF
FF80FF
FFFFFF
FF40FF
FF00FF
FF00FF
FF00FF
FF00FF
FF00FF
FF00FF
FF00FF
ENDCHAR
STARTCHAR  043A
ENCODING  1082
SWIDTH  1000 0
DWIDTH  5 0
BBX  3 12 1 0
BITMAP
FF00FF
FF00FF
FFFFFF
FFFFFF
FF00FF
FF00FF
FF00FF
FF00FF
FF00FF
FF00FF
FF00FF
FF00FF
ENDCHAR
STARTCHAR  043B
ENCODING  1083
SWIDTH  1000 0
DWIDTH  5 0
BBX  4 12 0 0
BITMAP
00FFFFFF
00FF00FF
00FF00FF
00FF00FF
00FF00FF
00FF00FF
00FF00FF
00FF00FF
00FF00FF
00FF00FF
00FF00FF
80FF00FF
ENDCHAR
STARTCHAR  043C
ENCODING  1084
SWIDTH  1000 0
DWIDTH  7 0
BBX  5 12 1 0
BITMAP
FFFFFFFFFF
FF00FF00FF
FF00FF00FF
FF00FF00FF
FF00FF00FF
FF00FF00FF
FF00FF00FF
FF00FF00FF
FF00FF00FF
FF00FF00FF
FF00FF00FF
FF00FF00FF
ENDCHAR
STARTCHAR  043D
ENCODING  1085
SWIDTH  1000 0
DWIDTH  5 0
BBX  3 12 1 0
BITMAP
FF00FF
FF00FF
FFFFFF
FF00FF
FF00FF
FF00FF
FF00FF
FF00FF
FF00FF
FF00FF
FF00FF
FF00FF
ENDCHAR
STARTCHAR  043E
ENCODING  1086
SWIDTH  1000 0
DWIDTH  5 0
BBX  3 12 1 0
BITMAP
FFFFFF
FF00FF
FF00FF
FF00FF
FF00FF
FF00FF
FF00FF
FF00FF
FF00FF
FF00FF
FF00FF
FFFFFF
ENDCHAR
STARTCHAR  043F
ENCODING  1087
SWIDTH  1000 0
DWIDTH  5 0
BBX  3 12 1 0
BITMAP
FFFFFF
FF00FF
FF00FF
FF00FF
FF00FF
FF00FF
FF00FF
FF00FF
FF00FF
FF00FF
FF00FF
FF00FF
ENDCHAR
STARTCHAR  0440
ENCODING  1088
SWIDTH  1000 0
DWIDTH  5 0
BBX  3 12 1 0
BITMAP
FFFFFF
FF00FF
FF00FF
FF00FF
FF00FF
FF00FF
FF00FF
FF00FF
FF00FF
FFFFFF
FF0000
FF0000
ENDCHAR
STARTCHAR  0441
ENCODING  1089
SWIDTH  1000 0
DWIDTH  5 0
BBX  3 12 1 0
BITMAP
FFFFFF
FF00FF
FF00FF
FF0080
FF00FF
FF00FF
FF00FF
FF00FF
FF00FF
FF00FF
FF00FF
FFFFFF
ENDCHAR
STARTCHAR  0442
ENCODING  1090
SWIDTH  1000 0
DWIDTH  5 0
BBX  3 12 1 0
BITMAP
FF0000
FF0000
FFFFFF
FF0080
FF00FF
FF00FF
FF00FF
FF00FF
FF00FF
FF00FF
FF00FF
FFFFFF
ENDCHAR
STARTCHAR  0443
ENCODING  1091
SWIDTH  1000 0
DWIDTH  5 0
BBX  3 12 1 0
BITMAP
FF00FF
FF00FF
FFFFFF
8000FF
FF00FF
FF00FF
FF00FF
FF00FF
FF00FF
FF00FF
FF00FF
FFFFFF
ENDCHAR
STARTCHAR  0444
ENCODING  1092
SWIDTH  1000 0
DWIDTH  7 0
BBX  5 12 1 0
BITMAP
0000FF0000
0000FF0000
FFFFFFFFFF
FF00FF00FF
FF00FF00FF
FF00FF00FF
FF00FF00FF
FF00FF00FF
FF00FF00FF
FFFFFFFFFF
0000FF0000
0000FF0000
ENDCHAR
STARTCHAR  0445
ENCODING  1093
SWIDTH  1000 0
DWIDTH  5 0
BBX  3 12 1 0
BITMAP
FF00FF
FF00FF
FFFFFF
FFFFFF
FFE0FF
FF00FF
FF00FF
FF00FF
FF00FF
FF00FF
FF00FF
FF00FF
ENDCHAR
STARTCHAR  0446
ENCODING  1094
SWIDTH  1000 0
DWIDTH  5 0
BBX  3 13 1 -1
BITMAP
FF00FF
FF00FF
FF00FF
FF00FF
FF00FF
FF00FF
FF00FF
FF00FF
FF00FF
FF00FF
FF00FF
FFFFFF
0000FF
ENDCHAR
STARTCHAR  0447
ENCODING  1095
SWIDTH  1000 0
DWIDTH  5 0
BBX  3 12 1 0
BITMAP
FF00FF
FF00FF
FF00FF
FF00FF
FF00FF
FF00FF
FF00FF
FF00FF
FF00FF
FFFFFF
0000FF
0000FF
ENDCHAR
STARTCHAR  0448
ENCODING  1096
SWIDTH  1000 0
DWIDTH  7 0
BBX  5 12 1 0
BITMAP
FF00FF00FF
FF00FF00FF
FF00FF00FF
FF00FF00FF
FF00FF00FF
FF00FF00FF
FF00FF00FF
FF00FF00FF
FF00FF00FF
FF00FF00FF
FF00FF00FF
FFFFFFFFFF
ENDCHAR
STARTCHAR  0449
ENCODING  1097
SWIDTH  1000 0
DWIDTH  7 0
BBX  5 13 1 -1
BITMAP
FF00FFFF00
FF00FFFF00
FF00FFFF00
FF00FFFF00
FF00FFFF00
FF00FFFF00
FF00FFFF00
FF00FFFF00
FF00FFFF00
FF00FFFF00
FF00FFFF00
FFFFFFFFFF
00000000FF
ENDCHAR
STARTCHAR  044A
ENCODING  1098
SWIDTH  1000 0
DWIDTH  5 0
BBX  3 12 1 0
BITMAP
FFFF00
00FFFF
00FFFF
00FFFF
00FFFF
00FFFF
00FFFF
00FFFF
00FFFF
00FFFF
00FFFF
00FFFF
ENDCHAR
STARTCHAR  044B
ENCODING  1099
SWIDTH  1000 0
DWIDTH  7 0
BBX  5 12 1 0
BITMAP
FF000000FF
FFFFFF00FF
FF00FF00FF
FF00FF00FF
FF00FF00FF
FF00FF00FF
FF00FF00FF
FF00FF00FF
FF00FF00FF
FF00FF00FF
FF00FF00FF
FFFFFF00FF
ENDCHAR
STARTCHAR  044C
ENCODING  1100
SWIDTH  1000 0
DWIDTH  5 0
BBX  3 12 1 0
BITMAP
FF0000
FFFFFF
FF00FF
FF00FF
FF00FF
FF00FF
FF00FF
FF00FF
FF00FF
FF00FF
FF00FF
FFFFFF
ENDCHAR
STARTCHAR  044D
ENCODING  1101
SWIDTH  1000 0
DWIDTH  5 0
BBX  3 12 1 0
BITMAP
FFFFFF
8000FF
FFFFFF
8000FF
FF00FF
FF00FF
FF00FF
FF00FF
FF00FF
FF00FF
FF00FF
FFFFFF
ENDCHAR
STARTCHAR  044E
ENCODING  1102
SWIDTH  1000 0
DWIDTH  7 0
BBX  5 12 1 0
BITMAP
FF00FFFFFF
FF00FF00FF
FFFFFF00FF
FF00FF00FF
FF00FF00FF
FF00FF00FF
FF00FF00FF
FF00FF00FF
FF00FF00FF
FF00FF00FF
FF00FF00FF
FF00FFFFFF
ENDCHAR
STARTCHAR  044F
ENCODING  1103
SWIDTH  1000 0
DWIDTH  5 0
BBX  3 12 1 0
BITMAP
FFFFFF
FF00FF
FFFFFF
FFFFFF
FF00FF
FF00FF
FF00FF
FF00FF
FF00FF
FF00FF
FF00FF
FF00FF
ENDCHAR
STARTCHAR  0451
ENCODING  1105
SWIDTH  1000 0
DWIDTH  5 0
BBX  3 14 1 0
BITMAP
FF00FF
000000
FFFFFF
FF00FF
FFFFFF
FF0080
FF00FF
FF00FF
FF00FF
FF00FF
FF00FF
FF00FF
FF00FF
FFFFFF
ENDCHAR
STARTCHAR  2018
ENCODING  8216
SWIDTH  1000 0
DWIDTH  3 0
BBX  1 3 1 11
BITMAP
E0
FF
FF
ENDCHAR
STARTCHAR  2019
ENCODING  8217
SWIDTH  1000 0
DWIDTH  3 0
BBX  1 3 1 11
BITMAP
FF
FF
E0
ENDCHAR
STARTCHAR  201C
ENCODING  8220
SWIDTH  1000 0
DWIDTH  4 0
BBX  2 3 1 11
BITMAP
E0E0
FFFF
FFFF
ENDCHAR
STARTCHAR  201D
ENCODING  8221
SWIDTH  1000 0
DWIDTH  4 0
BBX  2 3 1 11
BITMAP
FFFF
FFFF
E0E0
ENDCHAR
ENDFONT
